# xmcd
#
# Track frame offsets:
#	150
#	19697
#	37095
#	51170
#	66065
#	89692
#	99425
#	122090
#	137447
#	153757
#	174120
#	193780
#	213462
#
# Disc length: 3054 seconds
#
# Revision: 0
# Processed by: cddbd v1.4b42PL0 Copyright (c) Steve Scherf et al.
# Submitted via: audiograbber 1.80
#
DISCID=ab0bec0d
DTITLE=Élio Camalle - Mágicas
DYEAR=1900
DGENRE=
TTITLE0=Mágicas
TTITLE1=Bonita
TTITLE2=Gabriela
TTITLE3=Prá Cá de Bagdá
TTITLE4=Saudade
TTITLE5=Dentro de Mim
TTITLE6=Nosso Amor
TTITLE7=Velho Coração
TTITLE8=Canções
TTITLE9=Palavrão
TTITLE10=Anjo Feliz
TTITLE11=Rei Alucinado
TTITLE12=Selvagem
EXTD=
EXTT0=6787209-6
EXTT1=99999999
EXTT2=6787218-3
EXTT3=6787211-P
EXTT4=6787216-5
EXTT5=6787212-9
EXTT6=99999999
EXTT7=6787208-7
EXTT8=6787210-0
EXTT9=6787214-7
EXTT10=6787217-4
EXTT11=6787215-6
EXTT12=6787219-2
PLAYORDER=
